<svg xmlns="http://www.w3.org/2000/svg" width="15" height="15" viewBox="0 0 15 15"><defs><style>.a{fill:#182849;}</style></defs><path class="a" d="M9.319-2.746a7.549,7.549,0,0,0,7.5-7.5,7.555,7.555,0,0,0-7.5-7.5,7.548,7.548,0,0,0-7.5,7.5A7.556,7.556,0,0,0,9.319-2.746ZM8.314-6.467a.842.842,0,0,1-.673-.371L5.536-9.43a.739.739,0,0,1-.186-.487.626.626,0,0,1,.627-.634.681.681,0,0,1,.572.309L8.283-8.014l3.365-5.392a.668.668,0,0,1,.557-.356.619.619,0,0,1,.658.588,1.053,1.053,0,0,1-.186.5L8.956-6.846A.734.734,0,0,1,8.314-6.467Z" transform="translate(-1.815 17.746)"/></svg>