<svg xmlns="http://www.w3.org/2000/svg" width="22" height="22" viewBox="0 0 22 22"><path d="M-.455,2.459a11.082,11.082,0,0,0,11-11,11.084,11.084,0,0,0-11.011-11,11.072,11.072,0,0,0-10.989,11A11.089,11.089,0,0,0-.455,2.459ZM-.466-7.969a.832.832,0,0,1-.6-.28l-4.756-4.756a1.584,1.584,0,0,1,.906-.216h8.9a1.6,1.6,0,0,1,.917.216L.127-8.25A.819.819,0,0,1-.466-7.969ZM-2.6-8.541-6.343-4.8a2,2,0,0,1-.108-.776V-11.55a1.79,1.79,0,0,1,.1-.744Zm4.238,0L5.39-12.294a1.79,1.79,0,0,1,.1.744v5.975a2,2,0,0,1-.108.776ZM-.477-7.117A1.541,1.541,0,0,0,.634-7.646L.99-7.969,4.851-4.1a1.428,1.428,0,0,1-.884.194H-4.92A1.389,1.389,0,0,1-5.793-4.1l3.861-3.872.345.324A1.541,1.541,0,0,0-.477-7.117Z" transform="translate(11.455 19.541)"/></svg>