<svg xmlns="http://www.w3.org/2000/svg" width="22" height="22" viewBox="0 0 22 22"><defs><style>.a{fill:#1977f3;}.b{fill:#fefefe;}</style></defs><path class="a" d="M22,11A11,11,0,1,0,9.281,21.867V14.18H6.488V11H9.281V8.576c0-2.757,1.643-4.28,4.155-4.28a16.91,16.91,0,0,1,2.463.215V7.218H14.511a1.59,1.59,0,0,0-1.793,1.719V11h3.05l-.487,3.18H12.719v7.687A11,11,0,0,0,22,11Z"/><path class="b" d="M4202.794,2786.885l.487-3.18h-3.05v-2.064a1.59,1.59,0,0,1,1.793-1.719h1.388v-2.707a16.917,16.917,0,0,0-2.463-.215c-2.512,0-4.155,1.522-4.155,4.28v2.424H4194v3.18h2.794v7.687a11.018,11.018,0,0,0,1.719.133,11.2,11.2,0,0,0,1.718-.133v-7.687Z" transform="translate(-4187.512 -2772.704)"/></svg>