<svg xmlns="http://www.w3.org/2000/svg" width="22" height="22" viewBox="0 0 22 22"><defs><style>.a{fill:#4285f4;}.b{fill:#34a853;}.c{fill:#fbbc04;}.d{fill:#ea4335;}</style></defs><path class="a" d="M282.878,225.335a12.691,12.691,0,0,0-.194-2.235H272.1v4.236h6.061a5.086,5.086,0,0,1-2.243,3.343v2.748h3.616A10.637,10.637,0,0,0,282.878,225.335Z" transform="translate(-260.878 -214.082)"/><path class="b" d="M38.928,333.192a10.87,10.87,0,0,0,7.438-2.655l-3.616-2.748a6.814,6.814,0,0,1-3.818,1.051,6.7,6.7,0,0,1-6.3-4.539H28.9v2.833A11.25,11.25,0,0,0,38.928,333.192Z" transform="translate(-27.706 -311.192)"/><path class="c" d="M4.871,157.045a6.465,6.465,0,0,1,0-4.212V150H1.144a10.815,10.815,0,0,0,0,9.878Z" transform="translate(0.05 -143.937)"/><path class="d" d="M38.928,4.335a6.166,6.166,0,0,1,4.3,1.649h0l3.2-3.14A10.906,10.906,0,0,0,38.928-.018,11.246,11.246,0,0,0,28.9,6.045l3.727,2.833A6.7,6.7,0,0,1,38.928,4.335Z" transform="translate(-27.706 0.018)"/></svg>